<?xml version="1.0" encoding="utf-8"?>
<!-- Generator: Adobe Illustrator 21.1.0, SVG Export Plug-In . SVG Version: 6.00 Build 0)  -->
<svg version="1.1" id="Layer_1" xmlns="http://www.w3.org/2000/svg" xmlns:xlink="http://www.w3.org/1999/xlink" x="0px" y="0px"
	 viewBox="0 0 355.9 84" style="enable-background:new 0 0 355.9 84;" xml:space="preserve">
<g>
	<path d="M0,1.8h27.5c4.7,0,9.1,0.8,13.3,2.5c4.2,1.6,7.9,4.1,11.3,7.3c3.4,3.2,6.1,7.5,8.1,12.9c2,5.4,3,11.5,3,18.4
		c0,7.5-1,14.1-3.1,19.6c-2,5.6-4.8,9.9-8.3,12.9c-3.5,3-7.3,5.2-11.5,6.6c-4.1,1.4-8.6,2.1-13.5,2.1H0V1.8z M26.8,69.3
		c2.8,0,5.3-0.3,7.4-1s4.1-1.9,6-3.7c1.9-1.8,3.3-4.5,4.3-8.2c1-3.6,1.5-8.2,1.5-13.7c0-9.2-1.7-15.8-5.1-20
		c-3.4-4.2-7.9-6.3-13.5-6.3H15.9v52.9H26.8z"/>
	<path d="M98.4,1.8h15.9V84H98.4V1.8z"/>
	<path d="M154.8,67.3h17.5V84h-17.5V67.3z"/>
	<path d="M207.5,39.6h58.6v12.9h-58.6V39.6z"/>
	<path d="M298,72.2c0-7.5,1.8-13.4,5.4-17.6c3-3.5,9.2-7.6,18.6-12.3c0.5-0.2,1.3-0.6,2.4-1.2c3.1-1.5,5.4-2.6,6.8-3.5
		s2.9-1.9,4.6-3.2s2.9-2.8,3.5-4.3s0.9-3.3,0.9-5.3c0-3.1-1.2-5.6-3.6-7.6s-5.7-3-9.8-3c-8.5,0-13.4,5.3-14.5,16l-15-2
		c0.5-9,3.5-15.9,8.8-20.8c5.3-4.9,12.5-7.3,21.6-7.3c8,0,14.6,2.3,19.8,6.9c5.2,4.6,7.8,10.9,7.8,18.9c0,3.4-0.6,6.4-1.8,9.2
		c-1.2,2.8-2.9,5.2-5.1,7.4c-2.2,2.2-4.5,4-6.7,5.4c-2.2,1.4-4.9,3-8,4.5c-6,3.1-10,5.2-12,6.3c-2,1.2-3.5,2.4-4.4,3.8
		c-1.1,1.6-1.6,3.7-1.6,6.1h40.3V84H298V72.2z"/>
</g>
</svg>
