<?xml version="1.0" standalone="no"?>
<!DOCTYPE svg PUBLIC "-//W3C//DTD SVG 20010904//EN"
 "http://www.w3.org/TR/2001/REC-SVG-20010904/DTD/svg10.dtd">
<svg version="1.0" xmlns="http://www.w3.org/2000/svg"
 width="512.000000pt" height="512.000000pt" viewBox="0 0 512.000000 512.000000"
 preserveAspectRatio="xMidYMid meet">

<g transform="translate(0.000000,512.000000) scale(0.100000,-0.100000)"
fill="#000000" stroke="none">
<path d="M1060 5110 c-298 -5 -318 -7 -372 -28 -182 -73 -297 -215 -327 -402
-5 -29 -4 -805 0 -1724 8 -1434 11 -1679 24 -1730 48 -188 211 -341 400 -375
42 -8 291 -9 840 -5 l780 7 38 -96 c143 -361 473 -641 857 -728 395 -89 810
31 1104 319 234 229 359 527 359 857 0 207 -40 373 -135 555 -183 354 -510
582 -914 640 l-81 12 -6 466 c-4 256 -7 606 -7 778 l0 312 -467 464 c-258 255
-520 514 -584 576 l-117 112 -538 -2 c-297 -1 -681 -5 -854 -8z m1310 -458 c0
-371 4 -406 61 -512 59 -110 180 -210 301 -246 57 -17 96 -19 409 -18 l346 1
7 -730 c4 -401 5 -731 4 -732 -2 -2 -51 -10 -111 -19 -478 -70 -866 -419 -993
-894 -21 -78 -27 -128 -31 -252 -3 -85 -1 -180 4 -211 l9 -56 -766 -6 c-834
-7 -831 -8 -926 48 -57 33 -121 106 -152 173 l-27 57 -6 590 c-4 325 -8 1096
-9 1715 l-3 1125 22 57 c31 80 106 159 189 200 l66 33 331 5 c181 3 543 7 803
8 l472 2 0 -338z m929 -643 c-149 -10 -431 -10 -487 1 -119 22 -221 99 -274
208 l-33 67 -3 304 -3 304 447 -439 447 -439 -94 -6z m433 -1744 c353 -61 642
-276 793 -589 298 -615 -41 -1344 -701 -1512 -540 -136 -1099 167 -1279 695
-101 299 -63 646 102 909 230 370 667 570 1085 497z"/>
<path d="M1036 3249 c-29 -23 -33 -54 -10 -87 l15 -22 948 0 c906 0 949 1 964
18 25 27 22 78 -5 96 -20 14 -127 16 -954 16 -927 0 -931 0 -958 -21z"/>
<path d="M1024 2684 c-13 -19 -15 -32 -8 -52 18 -50 35 -52 355 -50 276 3 298
4 318 22 26 24 27 67 3 89 -16 15 -55 17 -335 17 l-317 0 -16 -26z"/>
<path d="M1874 2684 c-22 -32 -10 -73 26 -91 31 -16 227 -17 267 -2 33 12 43
26 43 60 0 51 -23 59 -178 59 -141 0 -142 0 -158 -26z"/>
<path d="M3492 1688 c-98 -89 -348 -322 -359 -336 -19 -23 -16 -66 5 -85 41
-37 65 -24 215 115 l142 133 2 -400 c3 -394 3 -400 24 -417 27 -23 51 -23 80
1 l24 19 5 395 5 395 138 -129 c108 -101 144 -129 166 -129 40 0 64 22 64 59
0 37 10 27 -242 260 -124 115 -180 161 -197 161 -15 0 -44 -17 -72 -42z"/>
</g>
</svg>
